<mxfile host="app.diagrams.net" agent="Mozilla/5.0 (Windows NT 10.0; Win64; x64) AppleWebKit/537.36 (KHTML, like Gecko) Chrome/133.0.0.0 Safari/537.36" version="26.1.0">
  <diagram name="Page-1" id="35JzGls37Hoxh6enmsYt">
    <mxGraphModel dx="1451" dy="1988" grid="1" gridSize="10" guides="1" tooltips="1" connect="1" arrows="1" fold="1" page="1" pageScale="1" pageWidth="827" pageHeight="1169" math="0" shadow="0">
      <root>
        <mxCell id="0" />
        <mxCell id="1" parent="0" />
        <mxCell id="VEFYHDeU9nLeGT7K7yee-1" value="&amp;lt;&amp;lt;device&amp;gt;&amp;gt;&lt;div&gt;&lt;br&gt;&lt;/div&gt;&lt;div style=&quot;&quot;&gt;Backend Server&lt;/div&gt;" style="verticalAlign=top;align=center;spacingTop=8;spacingLeft=2;spacingRight=12;shape=cube;size=10;direction=south;fontStyle=4;html=1;whiteSpace=wrap;" vertex="1" parent="1">
          <mxGeometry x="190" y="110" width="400" height="240" as="geometry" />
        </mxCell>
        <mxCell id="VEFYHDeU9nLeGT7K7yee-9" style="edgeStyle=orthogonalEdgeStyle;rounded=0;orthogonalLoop=1;jettySize=auto;html=1;exitX=1;exitY=0.25;exitDx=0;exitDy=0;entryX=0;entryY=0.25;entryDx=0;entryDy=0;" edge="1" parent="1" source="VEFYHDeU9nLeGT7K7yee-2" target="VEFYHDeU9nLeGT7K7yee-3">
          <mxGeometry relative="1" as="geometry" />
        </mxCell>
        <mxCell id="VEFYHDeU9nLeGT7K7yee-17" style="edgeStyle=orthogonalEdgeStyle;rounded=0;orthogonalLoop=1;jettySize=auto;html=1;entryX=0;entryY=0.5;entryDx=0;entryDy=0;" edge="1" parent="1" source="VEFYHDeU9nLeGT7K7yee-2" target="VEFYHDeU9nLeGT7K7yee-16">
          <mxGeometry relative="1" as="geometry" />
        </mxCell>
        <mxCell id="VEFYHDeU9nLeGT7K7yee-2" value="Client&lt;span style=&quot;color: rgba(0, 0, 0, 0); font-family: monospace; font-size: 0px; text-align: start; text-wrap-mode: nowrap;&quot;&gt;%3CmxGraphModel%3E%3Croot%3E%3CmxCell%20id%3D%220%22%2F%3E%3CmxCell%20id%3D%221%22%20parent%3D%220%22%2F%3E%3CmxCell%20id%3D%222%22%20value%3D%22%22%20style%3D%22endArrow%3Dclassic%3Bhtml%3D1%3Brounded%3D0%3B%22%20edge%3D%221%22%20parent%3D%221%22%3E%3CmxGeometry%20width%3D%2250%22%20height%3D%2250%22%20relative%3D%221%22%20as%3D%22geometry%22%3E%3CmxPoint%20x%3D%22314%22%20y%3D%22400%22%20as%3D%22sourcePoint%22%2F%3E%3CmxPoint%20x%3D%22414%22%20y%3D%22430%22%20as%3D%22targetPoint%22%2F%3E%3C%2FmxGeometry%3E%3C%2FmxCell%3E%3CmxCell%20id%3D%223%22%20value%3D%226%3A%20add_fine()%22%20style%3D%22edgeLabel%3Bhtml%3D1%3Balign%3Dcenter%3BverticalAlign%3Dmiddle%3Bresizable%3D0%3Bpoints%3D%5B%5D%3B%22%20vertex%3D%221%22%20connectable%3D%220%22%20parent%3D%222%22%3E%3CmxGeometry%20x%3D%22-0.05%22%20y%3D%22-1%22%20relative%3D%221%22%20as%3D%22geometry%22%3E%3CmxPoint%20x%3D%2227%22%20y%3D%22-15%22%20as%3D%22offset%22%2F%3E%3C%2FmxGeometry%3E%3C%2FmxCell%3E%3C%2Froot%3E%3C%2FmxGraphModel%3E&lt;/span&gt;&amp;nbsp;Management" style="rounded=0;whiteSpace=wrap;html=1;" vertex="1" parent="1">
          <mxGeometry x="230" y="190" width="120" height="60" as="geometry" />
        </mxCell>
        <mxCell id="VEFYHDeU9nLeGT7K7yee-8" style="edgeStyle=orthogonalEdgeStyle;rounded=0;orthogonalLoop=1;jettySize=auto;html=1;entryX=1;entryY=0.75;entryDx=0;entryDy=0;exitX=0;exitY=0.75;exitDx=0;exitDy=0;" edge="1" parent="1" source="VEFYHDeU9nLeGT7K7yee-3" target="VEFYHDeU9nLeGT7K7yee-2">
          <mxGeometry relative="1" as="geometry" />
        </mxCell>
        <mxCell id="VEFYHDeU9nLeGT7K7yee-3" value="Payment Processing" style="rounded=0;whiteSpace=wrap;html=1;" vertex="1" parent="1">
          <mxGeometry x="400" y="190" width="120" height="60" as="geometry" />
        </mxCell>
        <mxCell id="VEFYHDeU9nLeGT7K7yee-6" style="edgeStyle=orthogonalEdgeStyle;rounded=0;orthogonalLoop=1;jettySize=auto;html=1;entryX=0;entryY=0.5;entryDx=0;entryDy=0;" edge="1" parent="1" source="VEFYHDeU9nLeGT7K7yee-4" target="VEFYHDeU9nLeGT7K7yee-2">
          <mxGeometry relative="1" as="geometry">
            <Array as="points">
              <mxPoint x="90" y="240" />
            </Array>
          </mxGeometry>
        </mxCell>
        <mxCell id="VEFYHDeU9nLeGT7K7yee-4" value="Mobile Clients" style="verticalAlign=top;align=center;shape=cube;size=10;direction=south;fontStyle=0;html=1;boundedLbl=1;spacingLeft=5;whiteSpace=wrap;" vertex="1" parent="1">
          <mxGeometry x="20" y="390" width="130" height="70" as="geometry" />
        </mxCell>
        <mxCell id="VEFYHDeU9nLeGT7K7yee-10" value="&amp;lt;&amp;lt;device&amp;gt;&amp;gt;&lt;div&gt;&lt;br&gt;&lt;/div&gt;&lt;div style=&quot;&quot;&gt;Database Server&lt;/div&gt;" style="verticalAlign=top;align=center;spacingTop=8;spacingLeft=2;spacingRight=12;shape=cube;size=10;direction=south;fontStyle=4;html=1;whiteSpace=wrap;" vertex="1" parent="1">
          <mxGeometry x="160" y="-170" width="320" height="180" as="geometry" />
        </mxCell>
        <mxCell id="VEFYHDeU9nLeGT7K7yee-11" value="Database" style="rounded=0;whiteSpace=wrap;html=1;" vertex="1" parent="1">
          <mxGeometry x="320" y="-90" width="120" height="60" as="geometry" />
        </mxCell>
        <mxCell id="VEFYHDeU9nLeGT7K7yee-12" style="edgeStyle=orthogonalEdgeStyle;rounded=0;orthogonalLoop=1;jettySize=auto;html=1;exitX=0;exitY=0;exitDx=180;exitDy=165;exitPerimeter=0;entryX=-0.008;entryY=0.78;entryDx=0;entryDy=0;entryPerimeter=0;" edge="1" parent="1" source="VEFYHDeU9nLeGT7K7yee-10" target="VEFYHDeU9nLeGT7K7yee-1">
          <mxGeometry relative="1" as="geometry" />
        </mxCell>
        <mxCell id="VEFYHDeU9nLeGT7K7yee-15" value="Send" style="edgeLabel;html=1;align=center;verticalAlign=middle;resizable=0;points=[];" vertex="1" connectable="0" parent="VEFYHDeU9nLeGT7K7yee-12">
          <mxGeometry x="-0.6002" y="-1" relative="1" as="geometry">
            <mxPoint as="offset" />
          </mxGeometry>
        </mxCell>
        <mxCell id="VEFYHDeU9nLeGT7K7yee-13" style="edgeStyle=orthogonalEdgeStyle;rounded=0;orthogonalLoop=1;jettySize=auto;html=1;entryX=1.017;entryY=0.284;entryDx=0;entryDy=0;entryPerimeter=0;" edge="1" parent="1" source="VEFYHDeU9nLeGT7K7yee-1" target="VEFYHDeU9nLeGT7K7yee-10">
          <mxGeometry relative="1" as="geometry" />
        </mxCell>
        <mxCell id="VEFYHDeU9nLeGT7K7yee-14" value="Request" style="edgeLabel;html=1;align=center;verticalAlign=middle;resizable=0;points=[];" vertex="1" connectable="0" parent="VEFYHDeU9nLeGT7K7yee-13">
          <mxGeometry x="0.204" y="-2" relative="1" as="geometry">
            <mxPoint as="offset" />
          </mxGeometry>
        </mxCell>
        <mxCell id="VEFYHDeU9nLeGT7K7yee-22" style="edgeStyle=orthogonalEdgeStyle;rounded=0;orthogonalLoop=1;jettySize=auto;html=1;exitX=0;exitY=0.75;exitDx=0;exitDy=0;entryX=0.25;entryY=1;entryDx=0;entryDy=0;" edge="1" parent="1" source="VEFYHDeU9nLeGT7K7yee-16" target="VEFYHDeU9nLeGT7K7yee-2">
          <mxGeometry relative="1" as="geometry" />
        </mxCell>
        <mxCell id="VEFYHDeU9nLeGT7K7yee-16" value="Real-Time Tracking" style="rounded=0;whiteSpace=wrap;html=1;" vertex="1" parent="1">
          <mxGeometry x="330" y="270" width="120" height="60" as="geometry" />
        </mxCell>
        <mxCell id="VEFYHDeU9nLeGT7K7yee-21" style="edgeStyle=orthogonalEdgeStyle;rounded=0;orthogonalLoop=1;jettySize=auto;html=1;entryX=1;entryY=0.5;entryDx=0;entryDy=0;exitX=0;exitY=0;exitDx=0;exitDy=155;exitPerimeter=0;" edge="1" parent="1" source="VEFYHDeU9nLeGT7K7yee-18" target="VEFYHDeU9nLeGT7K7yee-16">
          <mxGeometry relative="1" as="geometry" />
        </mxCell>
        <mxCell id="VEFYHDeU9nLeGT7K7yee-18" value="&amp;lt;&amp;lt;device&amp;gt;&amp;gt;&lt;div&gt;&lt;br&gt;&lt;/div&gt;&lt;div style=&quot;&quot;&gt;GPS Server&lt;/div&gt;" style="verticalAlign=top;align=center;spacingTop=8;spacingLeft=2;spacingRight=12;shape=cube;size=10;direction=south;fontStyle=4;html=1;whiteSpace=wrap;" vertex="1" parent="1">
          <mxGeometry x="490" y="380" width="320" height="180" as="geometry" />
        </mxCell>
        <mxCell id="VEFYHDeU9nLeGT7K7yee-19" value="Location Data" style="rounded=0;whiteSpace=wrap;html=1;" vertex="1" parent="1">
          <mxGeometry x="590" y="460" width="120" height="60" as="geometry" />
        </mxCell>
        <mxCell id="VEFYHDeU9nLeGT7K7yee-20" style="edgeStyle=orthogonalEdgeStyle;rounded=0;orthogonalLoop=1;jettySize=auto;html=1;entryX=0;entryY=0;entryDx=95;entryDy=320;entryPerimeter=0;exitX=0.5;exitY=1;exitDx=0;exitDy=0;" edge="1" parent="1" source="VEFYHDeU9nLeGT7K7yee-16" target="VEFYHDeU9nLeGT7K7yee-18">
          <mxGeometry relative="1" as="geometry" />
        </mxCell>
      </root>
    </mxGraphModel>
  </diagram>
</mxfile>
